<svg width="689" height="322" viewBox="0 0 689 322" fill="none" xmlns="http://www.w3.org/2000/svg">
<g id="redesignLogo">
<path id="(:)" d="M312.4 273.189C299.467 260.789 289.4 244.789 282.2 225.189C275 205.589 271.4 184.456 271.4 161.789C271.4 138.856 275.133 117.456 282.6 97.589C290.067 77.589 300.667 61.3224 314.4 48.789H348V51.989C334 65.8557 323.2 82.5224 315.6 101.989C308 121.322 304.2 141.256 304.2 161.789C304.2 182.189 307.867 201.856 315.2 220.789C322.533 239.722 332.867 256.122 346.2 269.989V273.189H312.4ZM352.513 273.189V269.989C365.846 256.122 376.179 239.722 383.513 220.789C390.846 201.856 394.513 182.189 394.513 161.789C394.513 141.256 390.713 121.322 383.113 101.989C375.513 82.5224 364.713 65.8557 350.713 51.989V48.789H384.313C398.046 61.3224 408.646 77.589 416.113 97.589C423.579 117.456 427.313 138.856 427.313 161.789C427.313 184.456 423.713 205.589 416.513 225.189C409.313 244.789 399.246 260.789 386.313 273.189H352.513Z" fill="#16563A" fill-opacity="0.5"/>
<g id="mame">
<path d="M154.8 107.2C168.667 107.2 179.667 111.4 187.8 119.8C196.067 128.2 200.2 139.867 200.2 154.8V220H166.2V159.4C166.2 152.2 164.267 146.667 160.4 142.8C156.667 138.8 151.467 136.8 144.8 136.8C138.133 136.8 132.867 138.8 129 142.8C125.267 146.667 123.4 152.2 123.4 159.4V220H89.4V159.4C89.4 152.2 87.4667 146.667 83.6 142.8C79.8667 138.8 74.6667 136.8 68 136.8C61.3333 136.8 56.0667 138.8 52.2 142.8C48.4667 146.667 46.6 152.2 46.6 159.4V220H12.4V108.4H46.6V122.4C50.0667 117.733 54.6 114.067 60.2 111.4C65.8 108.6 72.1333 107.2 79.2 107.2C87.6 107.2 95.0667 109 101.6 112.6C108.267 116.2 113.467 121.333 117.2 128C121.067 121.867 126.333 116.867 133 113C139.667 109.133 146.933 107.2 154.8 107.2ZM217.319 164C217.319 152.533 219.452 142.467 223.719 133.8C228.119 125.133 234.052 118.467 241.519 113.8C248.985 109.133 257.319 106.8 266.519 106.8C274.385 106.8 281.252 108.4 287.119 111.6C293.119 114.8 297.719 119 300.919 124.2V108.4H335.119V220H300.919V204.2C297.585 209.4 292.919 213.6 286.919 216.8C281.052 220 274.185 221.6 266.319 221.6C257.252 221.6 248.985 219.267 241.519 214.6C234.052 209.8 228.119 203.067 223.719 194.4C219.452 185.6 217.319 175.467 217.319 164ZM300.919 164.2C300.919 155.667 298.519 148.933 293.719 144C289.052 139.067 283.319 136.6 276.519 136.6C269.719 136.6 263.919 139.067 259.119 144C254.452 148.8 252.119 155.467 252.119 164C252.119 172.533 254.452 179.333 259.119 184.4C263.919 189.333 269.719 191.8 276.519 191.8C283.319 191.8 289.052 189.333 293.719 184.4C298.519 179.467 300.919 172.733 300.919 164.2Z" fill="black"/>
<path d="M502.261 107.2C516.128 107.2 527.128 111.4 535.261 119.8C543.528 128.2 547.661 139.867 547.661 154.8V220H513.661V159.4C513.661 152.2 511.728 146.667 507.861 142.8C504.128 138.8 498.928 136.8 492.261 136.8C485.594 136.8 480.328 138.8 476.461 142.8C472.728 146.667 470.861 152.2 470.861 159.4V220H436.861V159.4C436.861 152.2 434.928 146.667 431.061 142.8C427.328 138.8 422.128 136.8 415.461 136.8C408.794 136.8 403.528 138.8 399.661 142.8C395.928 146.667 394.061 152.2 394.061 159.4V220H359.861V108.4H394.061V122.4C397.528 117.733 402.061 114.067 407.661 111.4C413.261 108.6 419.594 107.2 426.661 107.2C435.061 107.2 442.528 109 449.061 112.6C455.728 116.2 460.928 121.333 464.661 128C468.528 121.867 473.794 116.867 480.461 113C487.128 109.133 494.394 107.2 502.261 107.2ZM676.78 162.4C676.78 165.6 676.58 168.933 676.18 172.4H598.78C599.313 179.333 601.513 184.667 605.38 188.4C609.38 192 614.246 193.8 619.98 193.8C628.513 193.8 634.446 190.2 637.78 183H674.18C672.313 190.333 668.913 196.933 663.98 202.8C659.18 208.667 653.113 213.267 645.78 216.6C638.446 219.933 630.246 221.6 621.18 221.6C610.246 221.6 600.513 219.267 591.98 214.6C583.446 209.933 576.78 203.267 571.98 194.6C567.18 185.933 564.78 175.8 564.78 164.2C564.78 152.6 567.113 142.467 571.78 133.8C576.58 125.133 583.246 118.467 591.78 113.8C600.313 109.133 610.113 106.8 621.18 106.8C631.98 106.8 641.58 109.067 649.98 113.6C658.38 118.133 664.913 124.6 669.58 133C674.38 141.4 676.78 151.2 676.78 162.4ZM641.78 153.4C641.78 147.533 639.78 142.867 635.78 139.4C631.78 135.933 626.78 134.2 620.78 134.2C615.046 134.2 610.18 135.867 606.18 139.2C602.313 142.533 599.913 147.267 598.98 153.4H641.78Z" fill="#16563A"/>
</g>
</g>
</svg>
